<?xml version="1.0" standalone="no"?>
<!DOCTYPE svg PUBLIC "-//W3C//DTD SVG 20010904//EN"
 "http://www.w3.org/TR/2001/REC-SVG-20010904/DTD/svg10.dtd">
<svg version="1.0" xmlns="http://www.w3.org/2000/svg"
 width="192.000000pt" height="192.000000pt" viewBox="0 0 192.000000 192.000000"
 preserveAspectRatio="xMidYMid meet">

<g transform="translate(0.000000,192.000000) scale(0.100000,-0.100000)"
fill="#000000" stroke="none">
<path d="M0 960 l0 -960 960 0 960 0 0 960 0 960 -960 0 -960 0 0 -960z m470
515 c0 -14 -4 -25 -10 -25 -5 0 -10 -19 -10 -42 l0 -42 38 37 c31 31 38 43 34
67 l-4 30 56 0 c53 0 56 -1 56 -25 0 -14 -6 -25 -12 -25 -7 -1 -35 -20 -61
-44 l-49 -44 51 -47 c28 -27 59 -53 68 -60 10 -7 14 -19 10 -29 -9 -22 -115
-23 -123 -1 -4 8 -1 21 5 28 8 10 1 23 -29 52 l-40 39 0 -42 c0 -23 5 -42 10
-42 6 0 10 -11 10 -25 0 -23 -3 -25 -50 -25 -56 0 -78 22 -47 45 25 18 25 182
0 200 -31 23 -9 45 47 45 47 0 50 -2 50 -25z m256 -60 c5 -13 8 -13 27 0 30
21 73 19 97 -5 16 -16 20 -33 20 -81 0 -46 4 -65 17 -74 10 -7 14 -19 10 -29
-5 -13 -17 -16 -54 -14 -41 3 -48 6 -51 26 -2 12 2 22 8 22 7 0 10 20 8 58 -3
52 -5 57 -27 60 -15 3 -30 -3 -38 -14 -15 -21 -18 -104 -3 -104 6 0 10 -11 10
-25 0 -23 -4 -25 -45 -25 -48 0 -69 20 -46 43 18 18 14 118 -6 132 -9 7 -14
19 -10 29 8 21 75 22 83 1z m371 -20 c26 -29 31 -87 11 -130 -23 -50 -100 -70
-157 -40 -72 37 -63 163 14 196 38 17 107 3 132 -26z m120 19 c3 -8 1 -20 -4
-25 -11 -11 14 -109 26 -109 3 0 14 19 24 43 16 37 16 43 2 53 -8 6 -15 21
-15 33 0 20 4 22 48 19 40 -3 47 -6 50 -25 2 -13 -1 -23 -7 -23 -10 0 -9 -6
20 -77 l11 -28 18 50 c15 44 15 51 2 61 -29 21 -6 44 43 44 52 0 69 -20 40
-48 -9 -9 -31 -51 -49 -92 -28 -65 -36 -75 -59 -78 -24 -3 -30 2 -46 39 l-19
42 -22 -42 c-18 -36 -25 -42 -48 -39 -22 3 -31 14 -58 78 -18 41 -40 83 -49
92 -29 28 -12 48 40 48 32 0 47 -5 52 -16z m-757 -328 c0 -8 -4 -16 -9 -18 -6
-1 6 -25 25 -52 l36 -48 34 48 c29 41 32 49 19 57 -26 14 -6 27 41 27 32 0 44
-4 44 -15 0 -8 -7 -15 -14 -15 -8 0 -35 -29 -60 -64 -40 -56 -46 -70 -46 -115
0 -39 4 -51 15 -51 8 0 15 -4 15 -10 0 -5 -22 -10 -50 -10 -48 0 -66 12 -35
24 10 4 15 20 15 51 0 38 -7 55 -45 108 -25 34 -54 65 -65 69 -36 13 -21 28
30 28 36 0 50 -4 50 -14z m300 -71 c62 -32 61 -146 -3 -186 -82 -51 -173 24
-147 121 19 70 85 99 150 65z m115 -67 c0 -88 15 -115 57 -105 32 8 48 45 48
107 0 38 -4 50 -15 50 -8 0 -15 7 -15 15 0 10 10 15 30 15 l30 0 0 -90 c0 -71
3 -92 15 -96 25 -10 17 -24 -15 -24 -16 0 -30 5 -30 10 0 6 -13 4 -30 -5 -40
-21 -57 -19 -85 10 -22 21 -25 33 -25 95 0 56 -3 70 -15 70 -8 0 -15 7 -15 16
0 11 8 14 33 12 l32 -3 0 -77z m251 67 c5 -13 8 -13 27 0 28 19 57 19 57 0 0
-8 -9 -15 -20 -15 -39 0 -60 -35 -60 -100 0 -47 3 -60 15 -60 8 0 15 -4 15
-10 0 -5 -22 -10 -50 -10 -27 0 -50 5 -50 10 0 6 7 10 15 10 12 0 15 16 15 80
0 64 -3 80 -15 80 -8 0 -15 7 -15 15 0 20 59 20 66 0z m-619 -405 c21 -55 40
-100 43 -100 3 0 22 44 42 98 l35 97 52 3 c45 3 51 1 51 -16 0 -11 -7 -22 -15
-26 -12 -4 -15 -25 -15 -96 0 -71 3 -92 15 -96 8 -4 15 -15 15 -25 0 -16 -8
-19 -55 -19 -48 0 -55 2 -55 20 0 11 7 20 15 20 12 0 15 14 15 70 0 39 -2 70
-4 70 -2 0 -19 -40 -37 -90 -33 -86 -35 -90 -64 -90 -30 0 -32 4 -64 90 -19
50 -36 90 -38 90 -1 0 -3 -31 -3 -70 0 -56 3 -70 15 -70 8 0 15 -9 15 -20 0
-17 -7 -20 -50 -20 -43 0 -50 3 -50 20 0 11 5 20 10 20 6 0 10 40 10 100 0 82
-3 100 -15 100 -8 0 -15 9 -15 20 0 18 7 20 54 20 l55 0 38 -100z m394 20 c22
-12 49 -61 49 -90 0 -18 -6 -20 -70 -20 -55 0 -70 -3 -70 -15 0 -23 39 -38 87
-32 40 4 44 3 41 -16 -4 -28 -65 -41 -120 -27 -44 12 -78 57 -78 103 0 34 24
82 47 96 23 14 89 14 114 1z m139 -7 c0 -15 1 -15 18 0 23 21 85 22 102 2 12
-14 15 -14 30 0 12 11 32 15 61 13 54 -4 69 -28 69 -110 0 -32 5 -58 10 -58 6
0 10 -9 10 -20 0 -17 -7 -20 -50 -20 -43 0 -50 3 -50 20 0 11 5 20 10 20 7 0
10 22 8 58 -3 51 -5 57 -26 60 -36 5 -52 -15 -52 -66 0 -30 5 -49 17 -57 26
-19 5 -35 -48 -35 -42 0 -49 3 -49 20 0 11 5 20 10 20 7 0 10 22 8 58 -3 54
-4 57 -30 60 -22 3 -30 -2 -38 -23 -16 -41 -13 -95 5 -95 8 0 15 -9 15 -20 0
-18 -7 -20 -55 -20 -47 0 -55 3 -55 19 0 10 7 21 15 25 11 4 15 21 15 61 0 40
-4 57 -15 61 -8 4 -15 15 -15 25 0 15 7 19 40 19 31 0 40 -4 40 -17z m477 2
c22 -16 47 -81 37 -97 -3 -4 -36 -8 -75 -8 -38 0 -69 -4 -69 -8 0 -5 9 -17 20
-27 15 -13 30 -16 65 -13 42 5 45 4 45 -17 0 -19 -7 -24 -44 -29 -86 -13 -146
33 -146 112 0 62 40 102 102 102 24 0 53 -7 65 -15z"/>
<path d="M976 1358 c-33 -47 -11 -102 39 -96 36 4 54 43 39 86 -13 36 -56 42
-78 10z"/>
<path d="M666 987 c-28 -21 -32 -87 -6 -119 27 -36 62 -36 89 -2 56 71 -14
172 -83 121z"/>
<path d="M817 593 c-19 -19 -5 -33 33 -33 41 0 49 7 28 28 -13 13 -50 16 -61
5z"/>
<path d="M1422 588 c-21 -21 -14 -28 29 -28 33 0 40 3 37 18 -4 21 -48 28 -66
10z"/>
</g>
</svg>
