<?xml version="1.0" standalone="no"?>
<!DOCTYPE svg PUBLIC "-//W3C//DTD SVG 20010904//EN"
 "http://www.w3.org/TR/2001/REC-SVG-20010904/DTD/svg10.dtd">
<svg version="1.0" xmlns="http://www.w3.org/2000/svg"
 width="1116.000000pt" height="1116.000000pt" viewBox="0 0 1116.000000 1116.000000"
 preserveAspectRatio="xMidYMid meet">
<metadata>
Created by potrace 1.11, written by Peter Selinger 2001-2013
</metadata>
<g transform="translate(0.000000,1116.000000) scale(0.100000,-0.100000)"
fill="#000000" stroke="none">
<path d="M5467 10144 c-1 -1 -69 -5 -152 -8 -82 -4 -168 -9 -190 -10 -90 -7
-191 -17 -215 -21 -14 -3 -50 -7 -80 -10 -30 -3 -62 -8 -70 -10 -8 -2 -39 -7
-69 -10 -30 -4 -63 -9 -75 -11 -12 -2 -46 -8 -76 -14 -65 -12 -72 -13 -175
-35 -44 -9 -107 -23 -140 -31 -33 -9 -68 -18 -78 -20 -10 -1 -75 -20 -145 -40
-608 -177 -1151 -463 -1546 -814 -167 -148 -338 -343 -447 -511 -61 -93 -122
-199 -117 -204 2 -2 71 13 153 32 135 31 526 112 615 128 19 4 71 13 115 21
94 17 347 61 390 67 17 3 57 10 90 15 33 6 78 14 100 17 22 3 54 7 70 10 17 2
53 7 80 10 28 3 75 10 105 15 30 5 80 12 110 15 83 10 121 15 160 20 19 2 60
7 90 10 30 3 73 8 95 10 59 7 121 13 200 20 39 3 88 8 110 10 22 2 83 7 135
11 52 3 115 8 140 10 98 8 380 18 467 17 76 -1 102 -6 145 -26 103 -48 130
-92 146 -242 8 -80 8 -658 -2 -1550 -3 -335 -8 -875 -12 -1200 -3 -324 -6
-657 -8 -738 -1 -81 1 -150 6 -153 8 -5 229 -8 351 -5 l48 1 -6 553 c-3 303
-8 732 -10 952 -2 220 -7 675 -11 1010 -8 850 -9 998 0 1097 13 161 47 227
140 273 44 21 69 26 142 28 83 1 370 -9 494 -18 145 -11 218 -17 250 -20 19
-2 69 -6 110 -9 134 -11 225 -20 305 -31 17 -2 57 -7 90 -10 33 -3 67 -8 75
-10 8 -2 42 -6 75 -10 73 -7 333 -44 434 -60 13 -2 45 -7 70 -11 25 -4 55 -8
66 -10 11 -2 74 -13 140 -24 66 -11 131 -22 145 -25 13 -2 40 -7 60 -10 19 -3
168 -32 330 -65 364 -75 334 -68 400 -85 30 -8 69 -16 85 -19 17 -3 46 -10 65
-16 51 -15 52 -14 26 33 -281 517 -807 968 -1481 1267 -27 12 -63 28 -80 35
-152 68 -551 203 -680 230 -11 3 -33 8 -50 12 -16 4 -32 7 -35 8 -3 1 -48 11
-100 23 -52 12 -106 24 -120 26 -14 3 -34 7 -45 9 -32 7 -275 45 -330 52 -27
3 -61 7 -75 10 -22 3 -94 10 -230 21 -143 11 -565 24 -573 18z"/>
<path d="M4338 8295 c-2 -2 -64 -5 -138 -9 -74 -3 -166 -8 -205 -11 -38 -2
-113 -7 -165 -10 -52 -3 -111 -7 -130 -10 -19 -2 -75 -7 -125 -10 -49 -3 -103
-8 -120 -10 -16 -2 -64 -7 -105 -10 -41 -4 -82 -8 -91 -10 -9 -2 -49 -6 -90
-9 -41 -4 -83 -9 -94 -12 -11 -2 -40 -6 -65 -9 -25 -2 -61 -6 -80 -9 -19 -3
-100 -15 -180 -26 -169 -25 -187 -27 -260 -40 -30 -6 -68 -12 -85 -15 -16 -3
-41 -8 -55 -10 -14 -3 -36 -8 -50 -10 -58 -11 -247 -47 -265 -50 -11 -3 -74
-16 -140 -30 -66 -14 -132 -28 -146 -31 -24 -5 -27 -13 -43 -97 -60 -331 -32
-658 84 -978 177 -491 613 -978 1160 -1298 41 -24 91 -54 110 -66 76 -46 431
-215 453 -215 7 0 17 -4 22 -9 23 -20 342 -130 500 -171 44 -12 91 -25 105
-30 14 -5 36 -11 50 -14 14 -2 45 -9 70 -15 64 -15 67 -14 73 17 4 15 33 142
66 282 52 221 84 364 182 815 11 50 22 104 25 120 2 17 7 37 9 45 2 8 7 29 10
45 2 17 7 39 9 50 12 56 115 584 120 610 7 43 36 205 43 240 3 17 6 37 8 45 1
8 5 29 8 45 4 17 9 46 11 65 3 19 12 73 20 120 31 182 40 261 40 375 -1 194
-74 287 -259 330 -54 13 -278 28 -287 20z"/>
<path d="M6667 8294 c-1 -1 -25 -4 -53 -8 -94 -11 -178 -43 -229 -88 -71 -63
-88 -109 -91 -253 -2 -66 1 -142 5 -170 5 -27 11 -72 15 -100 3 -27 8 -62 11
-77 6 -33 11 -61 19 -108 3 -19 22 -125 42 -235 20 -110 38 -209 39 -220 14
-94 184 -926 260 -1270 56 -256 161 -694 168 -701 16 -17 505 131 732 221 145
57 428 193 545 261 47 28 96 57 110 65 14 7 27 16 30 19 3 3 37 26 75 50 39
25 75 48 80 53 6 4 44 33 85 64 327 245 581 527 746 828 87 157 178 389 199
503 2 14 9 48 14 76 6 28 13 67 17 86 10 57 13 391 3 450 -5 30 -11 71 -14 90
-7 51 -26 130 -31 130 -2 0 -44 9 -92 19 -48 11 -100 22 -117 25 -51 10 -76
15 -93 20 -9 3 -34 8 -56 12 -21 3 -48 8 -60 10 -107 23 -528 96 -626 108 -25
3 -54 8 -65 10 -11 2 -46 7 -79 11 -32 3 -68 8 -80 10 -11 2 -46 6 -77 10 -31
3 -65 7 -75 9 -11 2 -55 7 -99 11 -44 4 -95 9 -113 11 -18 2 -61 6 -95 9 -127
11 -183 15 -232 20 -27 2 -99 7 -160 10 -60 4 -130 8 -155 10 -144 12 -496 25
-503 19z"/>
<path d="M362 3227 l0 -383 365 0 c232 1 368 -3 373 -9 4 -5 8 -408 8 -895 1
-487 1 -896 1 -910 l1 -25 518 0 c284 -1 519 2 522 6 3 4 5 415 5 914 0 595 3
909 10 913 5 3 167 6 360 7 l350 0 0 380 0 380 -1257 2 -1256 2 0 -382z"/>
<path d="M3595 3592 c-3 -9 -27 -71 -51 -137 -25 -66 -49 -129 -54 -140 -4
-11 -18 -47 -30 -80 -13 -33 -31 -80 -41 -105 -9 -25 -51 -136 -93 -247 -42
-112 -81 -213 -86 -225 -5 -13 -71 -185 -145 -383 -75 -198 -149 -394 -164
-435 -70 -182 -115 -299 -136 -355 -71 -186 -175 -465 -175 -472 0 -12 994
-10 1001 2 4 5 30 80 59 165 88 259 162 478 295 865 70 204 137 402 150 440
14 42 25 64 29 55 7 -20 121 -348 198 -570 33 -96 64 -184 68 -195 5 -11 24
-67 44 -125 19 -58 72 -211 116 -340 45 -129 87 -251 93 -270 l12 -34 508 -1
c279 0 507 3 507 7 0 7 -143 377 -160 413 -5 11 -19 49 -31 85 -12 36 -25 70
-29 75 -4 6 -15 33 -25 60 -9 28 -23 64 -30 80 -8 17 -71 179 -141 360 -70
182 -156 404 -191 495 -35 91 -109 280 -163 420 -54 140 -127 325 -160 410
-34 85 -64 165 -67 177 l-5 22 -548 0 c-508 0 -549 -1 -555 -17z"/>
<path d="M5469 3608 c-5 -9 -4 -758 0 -760 3 0 168 -2 366 -4 198 -1 363 -2
368 -3 4 -1 7 -414 7 -919 l0 -917 513 1 c281 1 517 2 523 3 8 1 11 260 11
910 0 499 3 912 6 917 3 5 165 9 361 8 l356 0 -1 383 -1 383 -1254 0 c-690 0
-1255 -1 -1255 -2z"/>
<path d="M8570 3257 c-73 -194 -141 -372 -150 -397 -10 -25 -45 -117 -78 -205
-33 -88 -91 -239 -128 -335 -36 -96 -79 -209 -94 -250 -15 -41 -77 -205 -138
-365 -213 -558 -261 -688 -258 -694 2 -3 228 -6 501 -6 l497 1 82 239 c46 132
93 269 105 305 13 36 24 72 26 80 2 8 33 98 68 200 36 102 104 302 152 445 49
143 90 262 92 264 1 2 5 2 8 0 4 -4 134 -373 165 -469 5 -14 43 -124 85 -245
42 -121 92 -267 111 -325 20 -58 39 -114 44 -125 5 -11 34 -96 66 -190 32 -93
61 -172 65 -175 11 -7 997 -5 1004 2 5 5 -112 325 -155 423 -16 38 -97 250
-105 275 -4 14 -11 30 -15 35 -3 6 -15 33 -25 60 -9 28 -23 64 -30 80 -8 17
-44 109 -81 205 -37 96 -106 276 -154 400 -48 124 -126 326 -174 450 -48 124
-91 234 -96 245 -13 28 -146 375 -154 402 l-7 22 -548 0 -547 0 -134 -352z"/>
</g>
</svg>
