<svg width="114" height="114" viewBox="0 0 114 114" fill="none" xmlns="http://www.w3.org/2000/svg">
<path fill-rule="evenodd" clip-rule="evenodd" d="M95.4256 43.6085C85.2535 39.5983 74.9815 40.0269 72.3778 44.7203C69.7465 49.4533 73.5824 60.6559 80.8101 69.9584C88.0379 79.2609 98.2582 78.9545 103.894 68.7966C109.442 58.6732 105.57 47.6031 95.4274 43.6085" fill="#FF9700"/>
<path fill-rule="evenodd" clip-rule="evenodd" d="M43.6078 46.851C52.6322 53.0142 62.7372 54.8798 66.3236 50.8818C69.9374 46.851 68.6898 35.0804 63.7044 24.4097C58.719 13.7389 48.6982 11.7751 40.9473 20.4184C33.2928 29.0566 34.6127 40.7015 43.6113 46.851" fill="#006ECD"/>
<path fill-rule="evenodd" clip-rule="evenodd" d="M34.5219 51.1239C34.1295 51.0849 33.7332 51.1292 33.3591 51.2538C32.985 51.3785 32.6414 51.5807 32.3508 51.8473C32.0602 52.1139 31.8291 52.4388 31.6727 52.8009C31.5163 53.1629 31.4381 53.5539 31.4432 53.9483V55.6487H35.8125C35.8125 55.6487 35.9605 70.0749 35.7953 71.586C35.7879 72.6767 35.4805 73.7444 34.9068 74.6721C34.3331 75.5998 33.5153 76.3518 32.5428 76.8457C30.2093 77.9592 30.1646 79.0125 30.0149 79.9436C29.8204 81.1587 30.0493 81.3205 30.9321 81.0967C34.4066 80.2448 38.103 78.849 39.9719 75.4171C41.0506 73.2665 41.5416 70.8689 41.3951 68.4674V55.6452C41.7917 55.6791 42.1911 55.632 42.569 55.5068C42.9469 55.3816 43.2954 55.181 43.5935 54.917C43.8915 54.6531 44.1328 54.3314 44.3028 53.9713C44.4727 53.6113 44.5678 53.2205 44.5822 52.8227V51.1239H34.5219ZM29.6603 70.5723C28.4347 72.1381 26.8693 73.4047 25.0823 74.2765C23.2953 75.1484 21.3336 75.6025 19.3453 75.6047C16.0483 75.538 12.9089 74.1812 10.6008 71.8257C8.29277 69.4702 7 66.3035 7 63.0055C7 59.7075 8.29277 56.5409 10.6008 54.1853C12.9089 51.8298 16.0483 50.473 19.3453 50.4062C21.317 50.423 23.2596 50.8836 25.0289 51.7539C26.7982 52.6242 28.3489 53.8819 29.5657 55.4336C28.6013 56.4934 27.3095 57.1994 25.8968 57.4386C25.0661 57.3775 24.2715 57.0741 23.6114 56.566C22.3652 55.683 20.8725 55.2151 19.3453 55.2288C17.3436 55.3138 15.4572 56.1887 14.0992 57.662C12.7413 59.1353 12.0225 61.0867 12.1004 63.089C12.0655 64.4681 12.4111 65.8303 13.0991 67.026C13.7872 68.2217 14.7912 69.2049 16.001 69.8676C17.2109 70.5304 18.5798 70.8472 19.9578 70.7833C21.3357 70.7193 22.6695 70.2771 23.8128 69.5052C24.4849 69.0039 25.2915 68.715 26.1291 68.6756C26.8141 68.7418 27.4793 68.9432 28.086 69.2682C28.6927 69.5932 29.229 70.0352 29.6638 70.5688" fill="black"/>
<path d="M46.5438 79.3945C51.1541 68.5517 59.0788 59.7534 64.491 59.75C69.8602 59.75 75.2294 68.5086 76.6784 79.3463C78.1222 90.1548 70.3352 98.922 58.7897 99.0012C47.1771 99.0132 41.9422 90.2236 46.5456 79.3928" fill="#EF151E"/>
</svg>
