<?xml version="1.0" standalone="no"?>
<!DOCTYPE svg PUBLIC "-//W3C//DTD SVG 20010904//EN"
 "http://www.w3.org/TR/2001/REC-SVG-20010904/DTD/svg10.dtd">
<svg version="1.0" xmlns="http://www.w3.org/2000/svg"
 width="480.000000pt" height="480.000000pt" viewBox="0 0 480.000000 480.000000"
 preserveAspectRatio="xMidYMid meet">
<metadata>
Created by potrace 1.14, written by Peter Selinger 2001-2017
</metadata>
<g transform="translate(0.000000,480.000000) scale(0.100000,-0.100000)"
fill="#000000" stroke="none">
<path d="M0 4534 c0 -228 2 -265 14 -261 103 40 508 134 654 153 30 4 56 12
58 18 2 6 19 89 37 184 l34 172 -399 0 -398 0 0 -266z"/>
<path d="M1365 4791 c-3 -6 -32 -79 -65 -163 l-59 -153 42 -2 c173 -10 375
-25 392 -29 17 -4 32 19 108 171 48 96 87 177 87 180 0 9 -499 5 -505 -4z"/>
<path d="M2355 4575 c-81 -124 -146 -227 -144 -229 2 -1 55 -17 118 -35 246
-70 553 -199 788 -331 128 -73 378 -233 388 -251 4 -5 -12 -9 -35 -9 -33 0
-57 11 -128 58 -240 161 -511 299 -783 400 -164 61 -381 125 -390 114 -3 -4
-86 -132 -184 -284 l-178 -278 -128 0 -129 0 0 -188 0 -189 -146 -239 c-81
-131 -227 -371 -326 -531 l-179 -293 -105 0 -104 0 0 -178 0 -177 -327 -512
c-227 -354 -333 -513 -345 -513 -17 0 -18 -28 -18 -455 l0 -455 2400 0 2400 0
0 999 0 999 -63 139 c-35 77 -77 165 -94 196 -17 31 -28 59 -25 62 3 3 16 5
29 5 21 0 33 -17 88 -132 l64 -133 0 1333 1 1332 -1149 0 -1149 0 -147 -225z
m26 -990 c3 -38 9 -112 13 -162 l7 -93 -213 -2 -213 -3 -3 -77 -3 -78 176 0
175 0 0 -165 0 -165 -175 0 -175 0 0 -195 0 -195 -175 0 -175 0 0 605 0 605
378 -2 377 -3 6 -70z m1543 -32 c100 -167 82 -164 162 -24 l69 121 193 0 c105
0 192 -3 192 -6 0 -3 -75 -132 -166 -285 l-166 -280 186 -305 c102 -168 186
-307 186 -310 0 -2 -87 -4 -194 -4 l-194 0 -88 145 -88 145 -33 -52 c-17 -29
-56 -94 -85 -145 l-53 -92 -193 -1 -194 0 19 33 c237 406 338 582 336 588 -1
4 -77 130 -169 280 -92 151 -169 280 -171 287 -4 9 38 12 190 12 l196 0 65
-107z m-724 64 c112 -38 167 -72 252 -158 127 -128 186 -278 176 -451 -24
-402 -442 -666 -836 -528 -269 95 -445 381 -398 650 66 373 452 606 806 487z
m1153 -1372 c111 -29 187 -85 240 -176 53 -91 54 -89 -82 -134 -66 -21 -122
-37 -123 -34 -2 2 -10 18 -19 34 -19 34 -90 75 -132 75 -91 0 -140 -101 -66
-140 11 -6 76 -26 144 -45 68 -19 146 -45 173 -59 204 -103 229 -399 47 -564
-97 -87 -221 -123 -367 -103 -157 21 -269 97 -333 224 -56 111 -57 109 96 141
72 16 131 26 132 24 1 -1 11 -21 22 -43 30 -60 75 -85 150 -85 76 0 115 24
115 71 0 62 -14 71 -155 109 -166 45 -281 117 -328 204 -18 34 -22 57 -22 141
0 93 2 105 33 167 51 104 133 164 264 193 84 18 142 18 211 0z m-3101 -301
l166 -275 7 275 7 276 134 0 134 0 0 -560 0 -561 -136 3 -136 3 -186 318 -187
318 -3 -326 -2 -326 -143 3 -142 3 -3 550 c-1 303 0 556 3 563 3 9 45 12 163
12 l159 0 165 -276z m1248 146 l0 -130 -220 0 -220 0 0 -80 0 -80 178 -2 177
-3 3 -117 3 -118 -181 0 -180 0 0 -95 0 -95 220 0 220 0 0 -135 0 -135 -365 0
-365 0 0 560 0 560 365 0 365 0 0 -130z m340 124 c0 -11 120 -589 127 -609 4
-12 32 104 69 290 35 171 63 314 64 318 0 4 55 6 122 5 l122 -3 65 -312 c36
-172 67 -310 69 -308 3 2 34 143 71 312 l67 308 118 3 c109 2 117 1 112 -15
-6 -18 -256 -1094 -256 -1100 0 -2 -58 -3 -129 -3 l-130 0 -12 58 c-6 31 -35
172 -64 312 -29 140 -54 253 -55 250 -1 -3 -30 -142 -64 -310 l-62 -305 -131
-3 c-119 -2 -132 -1 -137 15 -3 10 -59 254 -126 543 -66 289 -123 533 -126
543 -5 16 6 17 140 17 80 0 146 -3 146 -6z"/>
<path d="M2934 3386 l-34 -34 0 -281 c0 -310 3 -326 60 -356 37 -19 63 -19
100 0 57 29 60 47 60 345 0 290 -3 310 -52 344 -12 9 -40 16 -61 16 -31 0 -46
-7 -73 -34z"/>
<path d="M1131 4157 c-398 -1146 -1119 -3232 -1117 -3234 1 -2 374 776 829
1729 455 952 825 1733 822 1736 -6 7 -162 20 -311 26 l-132 5 -91 -262z"/>
<path d="M585 4359 c-134 -23 -344 -75 -482 -118 l-103 -33 1 -1606 c0 -884 2
-1602 4 -1597 6 15 705 3351 705 3364 0 13 11 14 -125 -10z"/>
</g>
</svg>
