<?xml version="1.0" standalone="no"?>
<!DOCTYPE svg PUBLIC "-//W3C//DTD SVG 20010904//EN"
 "http://www.w3.org/TR/2001/REC-SVG-20010904/DTD/svg10.dtd">
<svg version="1.0" xmlns="http://www.w3.org/2000/svg"
 width="512.000000pt" height="512.000000pt" viewBox="0 0 512.000000 512.000000"
 preserveAspectRatio="xMidYMid meet">
<metadata>
Created by potrace 1.14, written by Peter Selinger 2001-2017
</metadata>
<g transform="translate(0.000000,512.000000) scale(0.100000,-0.100000)"
fill="#000000" stroke="none">
<path d="M2368 4899 c-719 -59 -1374 -449 -1770 -1054 -365 -556 -475 -1228
-307 -1882 140 -549 501 -1048 984 -1365 556 -365 1228 -475 1882 -307 549
140 1048 501 1365 984 365 556 475 1228 307 1882 -140 549 -501 1048 -984
1365 -436 287 -959 420 -1477 377z m1015 -1420 c74 -8 102 -8 112 1 10 8 35 9
77 5 61 -7 65 -9 89 -47 25 -38 26 -41 12 -96 -12 -50 -12 -64 3 -113 15 -52
15 -67 2 -175 -13 -103 -13 -125 -1 -169 13 -44 13 -58 -1 -115 -12 -56 -13
-67 0 -81 12 -13 12 -23 -2 -69 -14 -46 -14 -54 -1 -68 13 -13 13 -18 0 -50
-13 -31 -13 -42 1 -101 9 -36 27 -145 41 -243 14 -97 27 -182 30 -190 3 -8 31
-31 62 -51 52 -35 107 -55 198 -74 39 -8 40 -9 43 -53 2 -39 -1 -49 -26 -73
-15 -15 -59 -37 -97 -50 -65 -22 -71 -23 -143 -9 -58 11 -80 11 -97 2 -19 -10
-34 -5 -114 40 l-93 52 -111 -46 c-62 -25 -134 -51 -162 -57 -27 -7 -55 -16
-60 -20 -6 -4 -41 -2 -78 6 -186 39 -342 193 -414 410 -25 73 -27 93 -26 235
0 139 3 164 27 245 38 126 90 218 168 301 80 84 159 127 261 144 88 14 120 7
242 -48 55 -25 120 -47 145 -50 l45 -4 23 47 23 47 -23 47 c-18 36 -23 68 -26
151 -4 96 -6 107 -29 132 -19 20 -32 26 -52 22 -32 -6 -247 30 -265 45 -10 8
-10 23 -3 64 11 60 35 78 92 71 17 -2 74 -9 128 -15z m-2088 -478 c39 -11 89
-24 111 -30 37 -10 43 -16 53 -54 13 -44 3 -129 -33 -302 -13 -62 -13 -72 0
-86 13 -14 13 -27 3 -80 -16 -90 -14 -141 17 -331 l26 -167 77 -26 c42 -14 95
-25 119 -25 74 0 177 29 273 78 l94 47 22 73 c30 101 49 221 69 430 14 142 21
181 36 198 10 11 18 33 18 50 0 24 -9 35 -50 62 -49 32 -51 32 -170 32 l-120
0 -6 28 c-3 15 -7 32 -9 39 -2 6 8 16 23 21 15 6 52 21 82 35 l55 25 75 -30
75 -29 51 17 c50 17 53 17 85 -2 23 -14 39 -33 49 -62 12 -36 12 -51 -3 -130
-20 -105 -21 -149 -3 -257 12 -71 12 -82 -2 -98 -14 -16 -13 -36 12 -225 16
-114 30 -219 33 -234 l5 -28 27 19 c31 22 16 28 184 -72 88 -52 116 -73 113
-86 -3 -9 -10 -37 -16 -62 l-12 -47 -96 -27 c-120 -34 -192 -34 -315 -1 -94
26 -230 77 -252 96 -9 7 -67 -9 -196 -55 l-184 -65 -84 26 c-70 21 -91 33
-131 73 -48 48 -48 48 -68 28 -20 -20 -20 -20 -40 20 -20 37 -20 47 -9 256 8
169 8 234 -2 295 -11 65 -10 95 4 195 17 124 12 184 -19 246 -27 50 -38 54
-117 41 l-72 -12 -24 31 c-13 17 -31 31 -38 31 -7 0 -23 16 -35 36 l-23 35 33
34 c27 28 42 35 84 38 118 8 155 6 221 -12z"/>
<path d="M3024 2757 c-65 -48 -157 -144 -179 -188 -12 -22 -14 -66 -12 -207
l2 -180 40 -58 c22 -31 83 -102 135 -157 l95 -100 89 29 c84 28 91 32 133 86
36 47 50 58 74 58 24 0 29 4 29 25 0 29 35 125 63 172 l20 34 -27 122 c-25
113 -26 125 -12 163 14 40 13 42 -16 88 -23 35 -36 46 -56 46 -17 0 -41 14
-68 41 -37 37 -52 43 -116 55 -117 21 -129 19 -194 -29z"/>
</g>
</svg>
