<?xml version="1.0" standalone="no"?>
<!DOCTYPE svg PUBLIC "-//W3C//DTD SVG 20010904//EN"
 "http://www.w3.org/TR/2001/REC-SVG-20010904/DTD/svg10.dtd">
<svg version="1.0" xmlns="http://www.w3.org/2000/svg"
 width="144.000000pt" height="144.000000pt" viewBox="0 0 144.000000 144.000000"
 preserveAspectRatio="xMidYMid meet">
<metadata>
Created by potrace 1.11, written by Peter Selinger 2001-2013
</metadata>
<g transform="translate(0.000000,144.000000) scale(0.100000,-0.100000)"
fill="#000000" stroke="none">
<path d="M576 1424 c-220 -49 -397 -186 -492 -379 -76 -155 -97 -287 -70 -440
47 -272 231 -486 491 -572 69 -22 98 -26 210 -27 148 -1 224 17 350 82 96 50
237 191 287 287 65 126 83 202 82 350 0 111 -4 141 -26 207 -41 123 -92 204
-187 298 -94 93 -200 155 -316 186 -89 23 -246 27 -329 8z m314 -70 c333 -85
550 -440 474 -777 -81 -356 -423 -576 -779 -502 -38 8 -108 33 -155 56 -69 34
-101 58 -170 128 -135 136 -190 269 -190 461 0 181 61 330 189 459 64 65 94
87 172 124 82 40 121 51 239 71 38 6 159 -5 220 -20z"/>
<path d="M760 896 c0 -8 11 -17 24 -20 21 -5 30 -24 70 -148 24 -79 48 -156
52 -171 11 -48 34 -27 65 58 16 44 36 100 46 125 l16 45 42 -125 c25 -75 47
-126 56 -128 10 -2 31 47 72 167 50 144 62 170 84 180 40 18 14 33 -52 29 -60
-3 -84 -21 -42 -32 l24 -6 -35 -100 c-19 -55 -37 -100 -41 -100 -4 0 -20 39
-35 88 -16 48 -31 93 -34 100 -2 8 5 16 17 19 11 3 21 12 21 19 0 11 -17 14
-70 14 -56 0 -70 -3 -70 -15 0 -8 6 -15 14 -15 8 0 18 -5 21 -11 7 -10 -55
-199 -65 -199 -3 0 -19 39 -34 88 -16 48 -31 92 -33 99 -2 6 5 14 16 18 12 3
21 13 21 21 0 11 -17 14 -75 14 -57 0 -75 -3 -75 -14z"/>
<path d="M190 885 c0 -9 9 -15 25 -15 30 0 29 5 13 -178 -11 -126 -13 -133
-35 -138 -13 -4 -23 -12 -23 -20 0 -20 126 -20 133 0 4 9 -3 16 -20 21 -28 7
-27 -9 -6 198 7 70 7 70 75 -95 28 -71 55 -128 59 -128 4 0 33 64 65 143 l59
142 6 -50 c3 -27 9 -85 13 -127 7 -77 7 -77 -19 -84 -14 -3 -25 -12 -25 -20 0
-11 18 -14 80 -14 62 0 80 3 80 14 0 8 -11 17 -24 20 -22 5 -24 11 -36 151 -7
79 -14 148 -14 152 -1 5 9 9 22 11 12 2 22 10 22 18 0 10 -14 14 -58 14 l-59
0 -48 -120 c-27 -66 -52 -120 -55 -120 -4 0 -29 53 -56 118 l-49 117 -63 3
c-51 2 -62 0 -62 -13z"/>
<path d="M677 703 c-4 -3 -7 -12 -7 -20 0 -9 18 -13 65 -13 58 0 65 2 65 20 0
18 -7 20 -58 20 -32 0 -62 -3 -65 -7z"/>
</g>
</svg>
