<?xml version="1.0" standalone="no"?>
<!DOCTYPE svg PUBLIC "-//W3C//DTD SVG 20010904//EN"
 "http://www.w3.org/TR/2001/REC-SVG-20010904/DTD/svg10.dtd">
<svg version="1.0" xmlns="http://www.w3.org/2000/svg"
 width="512.000000pt" height="512.000000pt" viewBox="0 0 512.000000 512.000000"
 preserveAspectRatio="xMidYMid meet">
<metadata>
Created by potrace 1.14, written by Peter Selinger 2001-2017
</metadata>
<g transform="translate(0.000000,512.000000) scale(0.100000,-0.100000)"
fill="#000000" stroke="none">
<path d="M929 4586 c-2 -2 -38 -7 -79 -11 -80 -7 -108 -10 -155 -19 -16 -3
-45 -8 -63 -11 -27 -4 -125 -27 -212 -49 -142 -36 -178 -57 -243 -144 -23 -31
-45 -59 -48 -62 -3 -3 -18 -26 -33 -52 -76 -131 -1 -220 199 -235 92 -6 97 -6
162 8 63 12 83 27 83 59 0 27 -76 63 -180 85 -25 5 -50 18 -50 25 0 19 92 48
205 65 22 4 51 8 65 10 106 18 402 24 570 12 41 -3 75 -6 75 -7 0 0 20 -3 45
-4 41 -4 88 -9 180 -22 63 -8 153 -24 255 -46 55 -11 109 -22 120 -24 11 -1
20 -3 20 -4 0 -2 12 -5 50 -13 11 -3 40 -11 65 -18 25 -7 54 -14 64 -16 25 -4
216 -62 241 -73 11 -4 67 -25 125 -46 58 -20 141 -52 185 -71 44 -19 98 -42
120 -51 139 -59 392 -192 640 -336 58 -34 170 -110 173 -117 2 -5 10 -9 18 -9
8 0 14 -4 14 -10 0 -5 5 -10 11 -10 6 0 24 -10 39 -22 16 -13 59 -45 97 -73
37 -27 70 -52 73 -55 3 -3 21 -18 40 -33 125 -101 319 -287 390 -376 19 -24
41 -49 47 -56 33 -34 128 -176 167 -249 105 -193 150 -355 148 -530 -5 -373
-247 -657 -699 -820 -93 -33 -308 -89 -383 -100 -83 -11 -136 -19 -151 -21
-133 -24 -431 -24 -589 0 -19 3 -53 8 -75 10 -77 9 -121 16 -205 33 l-85 17 1
445 c1 245 4 495 6 555 l5 110 49 -1 c62 -1 221 -14 254 -20 14 -2 50 -6 80
-9 58 -5 108 -11 175 -20 67 -10 259 -46 275 -52 8 -4 18 -6 22 -5 4 1 42 -10
85 -23 188 -61 266 -134 201 -191 -35 -30 -127 -84 -142 -84 -8 0 -16 -3 -18
-7 -1 -5 -16 -16 -33 -25 -49 -27 -44 -51 17 -86 62 -35 116 -53 166 -57 35
-2 171 39 182 55 3 4 19 14 35 23 39 20 107 92 134 139 92 167 32 356 -159
499 -36 27 -70 53 -77 59 -7 5 -17 10 -24 10 -6 0 -23 8 -37 19 -57 39 -384
143 -400 126 -3 -3 -10 -1 -16 4 -6 5 -31 11 -56 14 -25 4 -56 9 -70 12 -52
11 -139 26 -181 31 -159 18 -226 24 -327 24 -63 1 -94 5 -97 13 -2 7 -6 86
-10 177 -6 195 -11 251 -31 356 -19 97 -28 121 -70 184 -61 90 -86 117 -121
124 -35 8 -51 -7 -82 -76 -36 -81 -90 -319 -94 -420 -1 -10 -4 -18 -7 -18 -3
0 -5 -12 -6 -27 0 -26 -14 -172 -20 -218 -1 -11 -3 -38 -3 -60 -2 -53 -9 -62
-55 -69 -21 -4 -48 -9 -60 -11 -12 -3 -37 -7 -56 -10 -19 -2 -46 -7 -60 -10
-14 -4 -34 -8 -45 -10 -18 -3 -168 -41 -205 -52 -8 -2 -17 -5 -20 -5 -46 -8
-313 -109 -318 -120 -2 -5 -11 -8 -20 -8 -15 0 -175 -87 -210 -113 -51 -40
-125 -125 -142 -164 -66 -150 -20 -260 221 -532 70 -78 201 -205 266 -256 14
-11 42 -35 62 -52 20 -18 42 -33 49 -33 6 0 12 -3 12 -7 0 -5 24 -24 53 -43
28 -19 54 -37 57 -40 19 -20 237 -149 323 -191 l67 -33 1 -46 c1 -25 1 -48 0
-52 0 -5 3 -8 9 -8 5 0 7 -6 4 -14 -5 -12 0 -46 22 -141 6 -27 44 -102 60
-120 44 -49 76 -62 144 -60 74 1 103 8 136 30 13 8 24 13 24 9 0 -4 8 4 19 17
23 31 39 81 44 144 3 42 7 50 23 49 25 -2 86 -14 94 -19 3 -2 17 -6 31 -9 194
-38 241 -46 279 -51 25 -3 61 -7 80 -9 180 -22 549 -22 662 -1 11 3 44 7 72
10 29 4 101 17 162 31 60 13 120 26 134 29 25 6 173 51 200 62 8 4 17 7 20 7
51 9 309 140 406 207 84 58 234 199 280 264 16 22 35 46 42 53 6 7 12 17 12
22 0 5 6 15 13 22 13 14 78 142 98 193 19 51 50 158 54 194 3 18 7 36 9 40 3
3 7 26 11 51 4 25 9 49 12 54 4 5 1 6 -5 2 -9 -5 -10 -1 -3 16 15 42 4 224
-20 323 -105 424 -431 881 -889 1249 -47 38 -94 76 -106 86 -11 9 -58 43 -105
75 -46 33 -88 63 -94 67 -31 25 -116 78 -125 78 -5 0 -10 5 -10 10 0 6 -7 10
-15 10 -8 0 -15 5 -15 10 0 6 -5 10 -11 10 -6 0 -23 8 -37 19 -15 10 -44 28
-64 40 -44 24 -93 52 -145 83 -105 60 -462 231 -508 242 -5 2 -23 9 -40 16
-240 101 -731 250 -910 276 -16 2 -38 7 -47 10 -18 5 -29 7 -98 18 -19 3 -48
8 -65 12 -41 8 -69 12 -145 19 -36 4 -76 9 -90 12 -30 6 -565 15 -571 9z
m1016 -2505 c-3 -86 -8 -183 -10 -216 -2 -33 -7 -105 -10 -160 -4 -55 -8 -113
-10 -130 -2 -16 -7 -75 -11 -130 -3 -55 -8 -113 -9 -130 -2 -16 -3 -36 -4 -42
-1 -18 -15 -16 -77 12 -30 14 -56 25 -58 25 -11 0 -165 76 -191 94 -16 11 -31
20 -33 18 -7 -7 -208 123 -297 192 -138 107 -284 250 -321 314 -22 39 -19 76
8 110 21 25 147 78 208 87 3 0 10 3 15 6 6 4 28 10 50 14 22 5 45 9 50 10 58
13 127 26 160 30 22 3 51 8 65 10 14 3 48 7 75 10 28 3 64 8 81 10 16 3 75 8
129 11 55 3 100 6 101 7 1 1 23 2 49 3 l46 0 -6 -155z"/>
</g>
</svg>
