<?xml version="1.0" encoding="UTF-8"?><svg id="icon" xmlns="http://www.w3.org/2000/svg" viewBox="0 0 256 256"><path d="M232.1,85.75v-28.32h-45.41l-5.72,28.57h16.34l-5.24,26.26h-16.34l-5.66,28.46c-.44,1.93-.76,3.32-.96,4.67-1.33,8.71,2.47,8.28,14.69,8.28l-5.59,27.99h-21.38c-20.21,0-36.65-.21-32.38-20.87.67-3.23,1.48-6.36,2.07-9.44l7.64-39.09h-15.71l5.25-26.26h15.7l5.73-28.57h-14.7V14.37h-54.37v87.63H11c1.61,22.72,21.72,26.02,29.04,42.16,5.04,11.12,9.46,30.67,24.21,30.85,11.3.14,11.3-14.61,25.83-14.61s20.97,27.59,33.89,50.3c9.68,17.85,25.77,29.81,40.35,30.82,11.96.83,17.75-3.24,17.75-3.24-3.23-6.49-4.84-12.97-4.84-22.71,0-14.61,11.29-29.19,24.21-38.93,17.75-13,37.12-17.87,43.57-19.48v-45.44s-12.9-6.91-12.9-25.98ZM158.03,153.67l19.09-96.24h-22l-19.08,96.24h22ZM183.03,27.01h-22l-4.21,21.24h22l4.21-21.24Z" fill="#c00"/></svg>