<svg width="16" height="16" viewBox="0 0 16 16" fill="none" xmlns="http://www.w3.org/2000/svg">
<g clip-path="url(#clip0_89_174)">
<path d="M8.0073 9.03238V6.97853H6.25697V7.59229C6.25697 7.59229 3.39557 7.59229 3.23729 7.59229C2.96332 7.59229 2.9268 7.60292 2.79286 7.70123C2.63761 7.81548 2.2358 8.13698 1.91617 8.42127C2.39408 8.42127 6.26002 8.42127 6.26002 8.42127V9.03238H8.01035H8.0073Z" fill="url(#paint0_linear_89_174)"/>
<path d="M8.00729 6.97853V9.03238H9.75762V8.41862C9.75762 8.41862 12.6464 8.41862 12.8047 8.41862C13.0787 8.41862 13.1152 8.40533 13.2491 8.30968C13.4044 8.19809 13.7788 7.87393 14.0984 7.58963C13.6205 7.58963 9.75457 7.58963 9.75457 7.58963V6.97853H8.00424H8.00729Z" fill="url(#paint1_linear_89_174)"/>
<path d="M5.52032 8.88092L6.16262 8.50364H1.66962L0.0197449 8.86498C0.025833 8.87296 0.0349651 8.88092 0.0532293 8.88092H5.52032Z" fill="#76777A"/>
<path d="M5.5386 6.52153C5.5386 6.52153 5.52338 6.54013 5.52338 6.55341V7.12732L6.16263 7.50461V6.89351L5.5386 6.52153Z" fill="#B1B1B1"/>
<path d="M10.4425 9.5C10.4425 9.5 10.4669 9.49469 10.476 9.48937L9.85198 9.1174H6.15956L5.53552 9.48937C5.54467 9.49735 5.55684 9.5 5.56901 9.5H10.4425Z" fill="#76777A"/>
<path d="M6.15957 7.50727L5.52032 7.12998H2.80199C2.0623 7.12732 2.02578 7.16718 1.54786 7.52321C1.34695 7.672 0.369811 8.50629 0.025835 8.82248C0.0106148 8.83576 0.0106148 8.85435 0.022791 8.86763L1.66962 8.50629H1.68484C1.68484 8.50629 1.6757 8.50629 1.66962 8.50629C1.98924 8.21933 2.48847 7.79156 2.66806 7.65606C2.83244 7.53118 2.90245 7.50993 3.18554 7.50727C3.89786 7.50727 6.16262 7.50727 6.16262 7.50727H6.15957Z" fill="#D9D8D6"/>
<path d="M6.15956 8.50364L5.51727 8.88092V9.45483C5.51727 9.45483 5.52335 9.47874 5.53553 9.48672L6.15956 9.11474V8.50364Z" fill="#B1B1B1"/>
<path d="M10.476 9.48672C10.476 9.48672 10.4943 9.46811 10.4943 9.45483V8.88092L9.85504 8.50364V9.1174L10.4791 9.48937L10.476 9.48672Z" fill="#B1B1B1"/>
<path d="M10.4425 6.5109H5.57206C5.57206 6.5109 5.54772 6.51622 5.53857 6.52153L6.16261 6.89351H9.85503L10.476 6.52153C10.476 6.52153 10.4547 6.5109 10.4425 6.5109Z" fill="#D9D8D6"/>
<path d="M9.85199 8.50364L10.4912 8.88092H13.2096C13.9493 8.88359 13.9858 8.84372 14.4637 8.48769C14.6646 8.3389 15.6418 7.50461 15.9857 7.18843C16.0009 7.17515 16.0009 7.15655 15.9918 7.14326L14.345 7.50461C14.0254 7.79156 13.5261 8.21933 13.3465 8.35484C13.1822 8.47973 13.1121 8.50097 12.8291 8.50364C12.1168 8.50364 9.85199 8.50364 9.85199 8.50364Z" fill="#76777A"/>
<path d="M9.85199 7.50461L10.4943 7.12732V6.55607C10.4943 6.55607 10.4882 6.53216 10.476 6.52419L9.85199 6.89616V7.50727V7.50461Z" fill="#B1B1B1"/>
<path d="M15.9583 7.12998H10.4943L9.85199 7.50727H14.345L15.9918 7.14592C15.9857 7.13795 15.9766 7.13263 15.9553 7.13263L15.9583 7.12998Z" fill="#D9D8D6"/>
<path d="M1.91314 8.41862C2.23276 8.13431 2.63456 7.81282 2.78981 7.69857C2.92375 7.60026 2.96028 7.58963 3.23425 7.58963C3.39254 7.58963 6.25392 7.58963 6.25392 7.58963V6.97853H9.75153V7.58963C9.75153 7.58963 13.5992 7.58963 14.0954 7.58963L14.3419 7.50461H9.84894V6.89351H6.15652V7.50461C6.15348 7.50461 3.88871 7.50461 3.17946 7.50461C2.89636 7.50461 2.82635 7.52587 2.66196 7.6534C2.48236 7.78891 1.98315 8.21668 1.66351 8.50364L1.91009 8.41862H1.91314Z" fill="#977124"/>
<path d="M14.0984 7.58963C13.7788 7.87393 13.4044 8.19542 13.2461 8.30968C13.1091 8.40799 13.0756 8.41862 12.8017 8.41862C12.6434 8.41862 9.75458 8.41862 9.75458 8.41862V9.03237H6.25697V8.42127C6.25697 8.42127 2.40931 8.42127 1.91314 8.42127L1.66656 8.50629H6.15957V9.1174H9.85199V8.50629C9.85504 8.50629 12.1198 8.50629 12.8291 8.50629C13.1121 8.50629 13.1822 8.48503 13.3465 8.3575C13.5261 8.222 14.0254 7.79422 14.345 7.50727L14.0984 7.59229V7.58963Z" fill="#F3E7C0"/>
<path d="M8.0073 9.03238V6.97853H6.25697V7.59229C6.25697 7.59229 3.39557 7.59229 3.23729 7.59229C2.96332 7.59229 2.9268 7.60292 2.79286 7.70123C2.63761 7.81548 2.2358 8.13698 1.91617 8.42127C2.39408 8.42127 6.26002 8.42127 6.26002 8.42127V9.03238H8.01035H8.0073Z" fill="url(#paint2_linear_89_174)"/>
<path d="M8.00729 6.97853V9.03238H9.75762V8.41862C9.75762 8.41862 12.6464 8.41862 12.8047 8.41862C13.0787 8.41862 13.1152 8.40533 13.2491 8.30968C13.4044 8.19809 13.7788 7.87393 14.0984 7.58963C13.6205 7.58963 9.75457 7.58963 9.75457 7.58963V6.97853H8.00424H8.00729Z" fill="url(#paint3_linear_89_174)"/>
<path d="M5.52032 8.88092L6.16262 8.50364H1.66962L0.0197449 8.86498C0.025833 8.87296 0.0349651 8.88092 0.0532293 8.88092H5.52032Z" fill="#76777A"/>
<path d="M5.5386 6.52153C5.5386 6.52153 5.52338 6.54013 5.52338 6.55341V7.12732L6.16263 7.50461V6.89351L5.5386 6.52153Z" fill="#B1B1B1"/>
<path d="M10.4425 9.5C10.4425 9.5 10.4669 9.49469 10.476 9.48937L9.85198 9.1174H6.15956L5.53552 9.48937C5.54467 9.49735 5.55684 9.5 5.56901 9.5H10.4425Z" fill="#76777A"/>
<path d="M6.15957 7.50727L5.52032 7.12998H2.80199C2.0623 7.12732 2.02578 7.16718 1.54786 7.52321C1.34695 7.672 0.369811 8.50629 0.025835 8.82248C0.0106148 8.83576 0.0106148 8.85435 0.022791 8.86763L1.66962 8.50629H1.68484C1.68484 8.50629 1.6757 8.50629 1.66962 8.50629C1.98924 8.21933 2.48847 7.79156 2.66806 7.65606C2.83244 7.53118 2.90245 7.50993 3.18554 7.50727C3.89786 7.50727 6.16262 7.50727 6.16262 7.50727H6.15957Z" fill="#D9D8D6"/>
<path d="M6.15956 8.50364L5.51727 8.88092V9.45483C5.51727 9.45483 5.52335 9.47874 5.53553 9.48672L6.15956 9.11474V8.50364Z" fill="#B1B1B1"/>
<path d="M10.476 9.48672C10.476 9.48672 10.4943 9.46811 10.4943 9.45483V8.88092L9.85504 8.50364V9.1174L10.4791 9.48937L10.476 9.48672Z" fill="#B1B1B1"/>
<path d="M10.4425 6.5109H5.57206C5.57206 6.5109 5.54772 6.51622 5.53857 6.52153L6.16261 6.89351H9.85503L10.476 6.52153C10.476 6.52153 10.4547 6.5109 10.4425 6.5109Z" fill="#D9D8D6"/>
<path d="M9.85199 8.50364L10.4912 8.88092H13.2096C13.9493 8.88359 13.9858 8.84372 14.4637 8.48769C14.6646 8.3389 15.6418 7.50461 15.9857 7.18843C16.0009 7.17515 16.0009 7.15655 15.9918 7.14326L14.345 7.50461C14.0254 7.79156 13.5261 8.21933 13.3465 8.35484C13.1822 8.47973 13.1121 8.50097 12.8291 8.50364C12.1168 8.50364 9.85199 8.50364 9.85199 8.50364Z" fill="#76777A"/>
<path d="M9.85199 7.50461L10.4943 7.12732V6.55607C10.4943 6.55607 10.4882 6.53216 10.476 6.52419L9.85199 6.89616V7.50727V7.50461Z" fill="#B1B1B1"/>
<path d="M15.9583 7.12998H10.4943L9.85199 7.50727H14.345L15.9918 7.14592C15.9857 7.13795 15.9766 7.13263 15.9553 7.13263L15.9583 7.12998Z" fill="#D9D8D6"/>
</g>
<defs>
<linearGradient id="paint0_linear_89_174" x1="9.13177" y1="5.93474" x2="8.83846" y2="9.37044" gradientUnits="userSpaceOnUse">
<stop offset="0.34" stop-color="#F4D78F"/>
<stop offset="1" stop-color="#E1B63D"/>
</linearGradient>
<linearGradient id="paint1_linear_89_174" x1="7.8144" y1="9.63148" x2="7.86689" y2="6.56598" gradientUnits="userSpaceOnUse">
<stop stop-color="#D2A12A"/>
<stop offset="0.88" stop-color="#F1CD6A"/>
<stop offset="1" stop-color="#F1CE6C"/>
</linearGradient>
<linearGradient id="paint2_linear_89_174" x1="9.13177" y1="5.93474" x2="8.83846" y2="9.37044" gradientUnits="userSpaceOnUse">
<stop offset="0.34" stop-color="#F4D78F"/>
<stop offset="1" stop-color="#E1B63D"/>
</linearGradient>
<linearGradient id="paint3_linear_89_174" x1="7.8144" y1="9.63148" x2="7.86689" y2="6.56598" gradientUnits="userSpaceOnUse">
<stop stop-color="#D2A12A"/>
<stop offset="0.88" stop-color="#F1CD6A"/>
<stop offset="1" stop-color="#F1CE6C"/>
</linearGradient>
<clipPath id="clip0_89_174">
<rect width="16" height="3" fill="white" transform="translate(0 6.5)"/>
</clipPath>
</defs>
</svg>
