<svg width="32" height="32" viewBox="0 0 32 32" fill="none" xmlns="http://www.w3.org/2000/svg">
<g clip-path="url(#clip0_89_144)">
<path d="M16.0146 18.4089V13.6166H12.514V15.0487C12.514 15.0487 6.79116 15.0487 6.4746 15.0487C5.92666 15.0487 5.85362 15.0735 5.58573 15.3029C5.27523 15.5694 4.47162 16.3196 3.83235 16.983C4.78818 16.983 12.5201 16.983 12.5201 16.983V18.4089H16.0207H16.0146Z" fill="url(#paint0_linear_89_144)"/>
<path d="M16.0146 13.6166V18.4089H19.5153V16.9768C19.5153 16.9768 25.2929 16.9768 25.6094 16.9768C26.1573 16.9768 26.2304 16.9458 26.4983 16.7226C26.8088 16.4622 27.5576 15.7058 28.1969 15.0425C27.241 15.0425 19.5092 15.0425 19.5092 15.0425V13.6166H16.0085H16.0146Z" fill="url(#paint1_linear_89_144)"/>
<path d="M11.0406 18.0555L12.3252 17.1752H3.33923L0.0394897 18.0183C0.051666 18.0369 0.0699302 18.0555 0.106459 18.0555H11.0406Z" fill="#76777A"/>
<path d="M11.0772 12.5502C11.0772 12.5502 11.0467 12.5936 11.0467 12.6246V13.9637L12.3252 14.8441V13.4182L11.0772 12.5502Z" fill="#B1B1B1"/>
<path d="M20.8851 19.5C20.8851 19.5 20.9338 19.4876 20.9521 19.4752L19.704 18.6073H12.3191L11.0711 19.4752C11.0894 19.4938 11.1137 19.5 11.1381 19.5H20.8851Z" fill="#76777A"/>
<path d="M12.3191 14.8503L11.0406 13.9699H5.60397C4.12458 13.9637 4.05154 14.0567 3.0957 14.8875C2.69388 15.2347 0.739607 17.1814 0.0516547 17.9191C0.0212143 17.9501 0.0212143 17.9935 0.0455668 18.0245L3.33922 17.1814H3.36967C3.36967 17.1814 3.35138 17.1814 3.33922 17.1814C3.97846 16.5118 4.97692 15.5137 5.33611 15.1975C5.66485 14.9061 5.80488 14.8565 6.37107 14.8503C7.7957 14.8503 12.3252 14.8503 12.3252 14.8503H12.3191Z" fill="#D9D8D6"/>
<path d="M12.3191 17.1752L11.0346 18.0555V19.3946C11.0346 19.3946 11.0467 19.4504 11.0711 19.469L12.3191 18.6011V17.1752Z" fill="#B1B1B1"/>
<path d="M20.9521 19.469C20.9521 19.469 20.9886 19.4256 20.9886 19.3946V18.0555L19.7101 17.1752V18.6073L20.9581 19.4752L20.9521 19.469Z" fill="#B1B1B1"/>
<path d="M20.8851 12.5254H11.1441C11.1441 12.5254 11.0954 12.5378 11.0772 12.5502L12.3252 13.4182H19.7101L20.952 12.5502C20.952 12.5502 20.9094 12.5254 20.8851 12.5254Z" fill="#D9D8D6"/>
<path d="M19.704 17.1752L20.9825 18.0555H26.4191C27.8985 18.0617 27.9716 17.9687 28.9274 17.1379C29.3292 16.7908 31.2835 14.8441 31.9715 14.1063C32.0019 14.0753 32.0019 14.0319 31.9836 14.0009L28.69 14.8441C28.0507 15.5137 27.0523 16.5118 26.6931 16.828C26.3644 17.1194 26.2243 17.1689 25.6581 17.1752C24.2335 17.1752 19.704 17.1752 19.704 17.1752Z" fill="#76777A"/>
<path d="M19.704 14.8441L20.9885 13.9637V12.6308C20.9885 12.6308 20.9764 12.575 20.952 12.5564L19.704 13.4244V14.8503V14.8441Z" fill="#B1B1B1"/>
<path d="M31.9166 13.9699H20.9885L19.704 14.8503H28.69L31.9836 14.0071C31.9714 13.9885 31.9532 13.9761 31.9106 13.9761L31.9166 13.9699Z" fill="#D9D8D6"/>
<path d="M3.82629 16.9768C4.46553 16.3134 5.26914 15.5632 5.57963 15.2967C5.84752 15.0673 5.92057 15.0425 6.46851 15.0425C6.7851 15.0425 12.5079 15.0425 12.5079 15.0425V13.6166H19.5031V15.0425C19.5031 15.0425 27.1984 15.0425 28.1908 15.0425L28.6839 14.8441H19.6979V13.4182H12.313V14.8441C12.307 14.8441 7.77743 14.8441 6.35893 14.8441C5.79273 14.8441 5.65271 14.8937 5.32393 15.1913C4.96474 15.5075 3.96631 16.5056 3.32704 17.1752L3.82019 16.9768H3.82629Z" fill="#977124"/>
<path d="M28.1969 15.0425C27.5576 15.7058 26.8088 16.456 26.4922 16.7226C26.2182 16.952 26.1512 16.9768 25.6033 16.9768C25.2868 16.9768 19.5092 16.9768 19.5092 16.9768V18.4089H12.5139V16.983C12.5139 16.983 4.81861 16.983 3.82628 16.983L3.33313 17.1814H12.3191V18.6073H19.704V17.1814C19.7101 17.1814 24.2396 17.1814 25.6581 17.1814C26.2243 17.1814 26.3643 17.1317 26.6931 16.8342C27.0523 16.518 28.0507 15.5199 28.69 14.8503L28.1969 15.0487V15.0425Z" fill="#F3E7C0"/>
<path d="M16.0146 18.4089V13.6166H12.514V15.0487C12.514 15.0487 6.79116 15.0487 6.4746 15.0487C5.92666 15.0487 5.85362 15.0735 5.58573 15.3029C5.27523 15.5694 4.47162 16.3196 3.83235 16.983C4.78818 16.983 12.5201 16.983 12.5201 16.983V18.4089H16.0207H16.0146Z" fill="url(#paint2_linear_89_144)"/>
<path d="M16.0146 13.6166V18.4089H19.5153V16.9768C19.5153 16.9768 25.2929 16.9768 25.6094 16.9768C26.1573 16.9768 26.2304 16.9458 26.4983 16.7226C26.8088 16.4622 27.5576 15.7058 28.1969 15.0425C27.241 15.0425 19.5092 15.0425 19.5092 15.0425V13.6166H16.0085H16.0146Z" fill="url(#paint3_linear_89_144)"/>
<path d="M11.0406 18.0555L12.3252 17.1752H3.33923L0.0394897 18.0183C0.051666 18.0369 0.0699302 18.0555 0.106459 18.0555H11.0406Z" fill="#76777A"/>
<path d="M11.0772 12.5502C11.0772 12.5502 11.0467 12.5936 11.0467 12.6246V13.9637L12.3252 14.8441V13.4182L11.0772 12.5502Z" fill="#B1B1B1"/>
<path d="M20.8851 19.5C20.8851 19.5 20.9338 19.4876 20.9521 19.4752L19.704 18.6073H12.3191L11.0711 19.4752C11.0894 19.4938 11.1137 19.5 11.1381 19.5H20.8851Z" fill="#76777A"/>
<path d="M12.3191 14.8503L11.0406 13.9699H5.60397C4.12458 13.9637 4.05154 14.0567 3.0957 14.8875C2.69388 15.2347 0.739607 17.1814 0.0516547 17.9191C0.0212143 17.9501 0.0212143 17.9935 0.0455668 18.0245L3.33922 17.1814H3.36967C3.36967 17.1814 3.35138 17.1814 3.33922 17.1814C3.97846 16.5118 4.97692 15.5137 5.33611 15.1975C5.66485 14.9061 5.80488 14.8565 6.37107 14.8503C7.7957 14.8503 12.3252 14.8503 12.3252 14.8503H12.3191Z" fill="#D9D8D6"/>
<path d="M12.3191 17.1752L11.0346 18.0555V19.3946C11.0346 19.3946 11.0467 19.4504 11.0711 19.469L12.3191 18.6011V17.1752Z" fill="#B1B1B1"/>
<path d="M20.9521 19.469C20.9521 19.469 20.9886 19.4256 20.9886 19.3946V18.0555L19.7101 17.1752V18.6073L20.9581 19.4752L20.9521 19.469Z" fill="#B1B1B1"/>
<path d="M20.8851 12.5254H11.1441C11.1441 12.5254 11.0954 12.5378 11.0772 12.5502L12.3252 13.4182H19.7101L20.952 12.5502C20.952 12.5502 20.9094 12.5254 20.8851 12.5254Z" fill="#D9D8D6"/>
<path d="M19.704 17.1752L20.9825 18.0555H26.4191C27.8985 18.0617 27.9716 17.9687 28.9274 17.1379C29.3292 16.7908 31.2835 14.8441 31.9715 14.1063C32.0019 14.0753 32.0019 14.0319 31.9836 14.0009L28.69 14.8441C28.0507 15.5137 27.0523 16.5118 26.6931 16.828C26.3644 17.1194 26.2243 17.1689 25.6581 17.1752C24.2335 17.1752 19.704 17.1752 19.704 17.1752Z" fill="#76777A"/>
<path d="M19.704 14.8441L20.9885 13.9637V12.6308C20.9885 12.6308 20.9764 12.575 20.952 12.5564L19.704 13.4244V14.8503V14.8441Z" fill="#B1B1B1"/>
<path d="M31.9166 13.9699H20.9885L19.704 14.8503H28.69L31.9836 14.0071C31.9714 13.9885 31.9532 13.9761 31.9106 13.9761L31.9166 13.9699Z" fill="#D9D8D6"/>
</g>
<defs>
<linearGradient id="paint0_linear_89_144" x1="18.2636" y1="11.1811" x2="17.4672" y2="19.1768" gradientUnits="userSpaceOnUse">
<stop offset="0.34" stop-color="#F4D78F"/>
<stop offset="1" stop-color="#E1B63D"/>
</linearGradient>
<linearGradient id="paint1_linear_89_144" x1="15.6288" y1="19.8068" x2="15.7717" y2="12.6547" gradientUnits="userSpaceOnUse">
<stop stop-color="#D2A12A"/>
<stop offset="0.88" stop-color="#F1CD6A"/>
<stop offset="1" stop-color="#F1CE6C"/>
</linearGradient>
<linearGradient id="paint2_linear_89_144" x1="18.2636" y1="11.1811" x2="17.4672" y2="19.1768" gradientUnits="userSpaceOnUse">
<stop offset="0.34" stop-color="#F4D78F"/>
<stop offset="1" stop-color="#E1B63D"/>
</linearGradient>
<linearGradient id="paint3_linear_89_144" x1="15.6288" y1="19.8068" x2="15.7717" y2="12.6547" gradientUnits="userSpaceOnUse">
<stop stop-color="#D2A12A"/>
<stop offset="0.88" stop-color="#F1CD6A"/>
<stop offset="1" stop-color="#F1CE6C"/>
</linearGradient>
<clipPath id="clip0_89_144">
<rect width="32" height="7" fill="white" transform="translate(0 12.5)"/>
</clipPath>
</defs>
</svg>
