<svg width="180" height="180" viewBox="0 0 180 180" fill="none" xmlns="http://www.w3.org/2000/svg">
<g clip-path="url(#clip0_89_143)">
<path d="M90.0822 103.421V76.7209H70.391V84.6998C70.391 84.6998 38.2002 84.6998 36.4196 84.6998C33.3375 84.6998 32.9266 84.838 31.4197 86.116C29.6732 87.6012 25.1529 91.7807 21.557 95.4765C26.9335 95.4765 70.4253 95.4765 70.4253 95.4765V103.421H90.1165H90.0822Z" fill="url(#paint0_linear_89_143)"/>
<path d="M90.0822 76.7209V103.421H109.773V95.442C109.773 95.442 142.272 95.442 144.053 95.442C147.135 95.442 147.546 95.2693 149.053 94.0258C150.799 92.5751 155.011 88.3611 158.607 84.6652C153.231 84.6652 109.739 84.6652 109.739 84.6652V76.7209H90.0479H90.0822Z" fill="url(#paint1_linear_89_143)"/>
<path d="M62.1035 101.452L69.3294 96.5473H18.7832L0.222106 101.245C0.290598 101.348 0.393333 101.452 0.598806 101.452H62.1035Z" fill="#76777A"/>
<path d="M62.3091 70.7799C62.3091 70.7799 62.1378 71.0217 62.1378 71.1944V78.6552L69.3294 83.5599V75.6156L62.3091 70.7799Z" fill="#B1B1B1"/>
<path d="M117.479 109.5C117.479 109.5 117.752 109.431 117.855 109.362L110.835 104.526H69.2952L62.2748 109.362C62.3776 109.465 62.5146 109.5 62.6516 109.5H117.479Z" fill="#76777A"/>
<path d="M69.2952 83.5945L62.1035 78.6897H31.5224C23.2008 78.6552 22.7899 79.1733 17.4133 83.8017C15.1531 85.736 4.16033 96.5818 0.290598 100.692C0.11937 100.865 0.11937 101.107 0.256353 101.279L18.7832 96.5818H18.9544C18.9544 96.5818 18.8516 96.5818 18.7832 96.5818C22.3789 92.8513 27.9952 87.2903 30.0157 85.5288C31.8648 83.9053 32.6525 83.629 35.8373 83.5945C43.8509 83.5945 69.3294 83.5945 69.3294 83.5945H69.2952Z" fill="#D9D8D6"/>
<path d="M69.2951 96.5473L62.0694 101.452V108.913C62.0694 108.913 62.1378 109.224 62.2748 109.327L69.2951 104.492V96.5473Z" fill="#B1B1B1"/>
<path d="M117.855 109.327C117.855 109.327 118.061 109.085 118.061 108.913V101.452L110.869 96.5473V104.526L117.889 109.362L117.855 109.327Z" fill="#B1B1B1"/>
<path d="M117.479 70.6417H62.6858C62.6858 70.6417 62.4119 70.7108 62.3091 70.7799L69.3294 75.6156H110.869L117.855 70.7799C117.855 70.7799 117.615 70.6417 117.479 70.6417Z" fill="#D9D8D6"/>
<path d="M110.835 96.5473L118.027 101.452H148.608C156.929 101.487 157.34 100.968 162.717 96.3399C164.977 94.4057 175.97 83.5599 179.84 79.4496C180.011 79.2769 180.011 79.0351 179.908 78.8624L161.381 83.5599C157.785 87.2903 152.169 92.8513 150.149 94.6129C148.3 96.2364 147.512 96.5126 144.327 96.5473C136.313 96.5473 110.835 96.5473 110.835 96.5473Z" fill="#76777A"/>
<path d="M110.835 83.5599L118.061 78.6552V71.2289C118.061 71.2289 117.992 70.918 117.855 70.8144L110.835 75.6501V83.5945V83.5599Z" fill="#B1B1B1"/>
<path d="M179.531 78.6897H118.061L110.835 83.5945H161.381L179.908 78.8969C179.839 78.7933 179.737 78.7242 179.497 78.7242L179.531 78.6897Z" fill="#D9D8D6"/>
<path d="M21.5229 95.442C25.1186 91.746 29.6389 87.5667 31.3854 86.0814C32.8923 84.8034 33.3032 84.6653 36.3853 84.6653C38.1661 84.6653 70.3567 84.6653 70.3567 84.6653V76.7209H109.705V84.6653C109.705 84.6653 152.991 84.6653 158.573 84.6653L161.347 83.5599H110.801V75.6156H69.2609V83.5599C69.2268 83.5599 43.748 83.5599 35.7689 83.5599C32.5841 83.5599 31.7965 83.8363 29.9471 85.4942C27.9266 87.2558 22.3105 92.8168 18.7146 96.5473L21.4886 95.442H21.5229Z" fill="#977124"/>
<path d="M158.607 84.6652C155.011 88.3611 150.799 92.5404 149.019 94.0258C147.478 95.3038 147.101 95.442 144.019 95.442C142.238 95.442 109.739 95.442 109.739 95.442V103.421H70.391V95.4765C70.391 95.4765 27.1047 95.4765 21.5229 95.4765L18.7489 96.5818H69.2952V104.526H110.835V96.5818C110.869 96.5818 136.348 96.5818 144.327 96.5818C147.512 96.5818 148.299 96.3054 150.149 94.6476C152.169 92.886 157.785 87.3249 161.381 83.5945L158.607 84.6998V84.6652Z" fill="#F3E7C0"/>
<path d="M90.0822 103.421V76.7209H70.391V84.6998C70.391 84.6998 38.2002 84.6998 36.4196 84.6998C33.3375 84.6998 32.9266 84.838 31.4197 86.116C29.6732 87.6012 25.1529 91.7807 21.557 95.4765C26.9335 95.4765 70.4253 95.4765 70.4253 95.4765V103.421H90.1165H90.0822Z" fill="url(#paint2_linear_89_143)"/>
<path d="M90.0822 76.7209V103.421H109.773V95.442C109.773 95.442 142.272 95.442 144.053 95.442C147.135 95.442 147.546 95.2693 149.053 94.0258C150.799 92.5751 155.011 88.3611 158.607 84.6652C153.231 84.6652 109.739 84.6652 109.739 84.6652V76.7209H90.0479H90.0822Z" fill="url(#paint3_linear_89_143)"/>
<path d="M62.1035 101.452L69.3294 96.5473H18.7832L0.222106 101.245C0.290598 101.348 0.393333 101.452 0.598806 101.452H62.1035Z" fill="#76777A"/>
<path d="M62.3091 70.7799C62.3091 70.7799 62.1378 71.0217 62.1378 71.1944V78.6552L69.3294 83.5599V75.6156L62.3091 70.7799Z" fill="#B1B1B1"/>
<path d="M117.479 109.5C117.479 109.5 117.752 109.431 117.855 109.362L110.835 104.526H69.2952L62.2748 109.362C62.3776 109.465 62.5146 109.5 62.6516 109.5H117.479Z" fill="#76777A"/>
<path d="M69.2952 83.5945L62.1035 78.6897H31.5224C23.2008 78.6552 22.7899 79.1733 17.4133 83.8017C15.1531 85.736 4.16033 96.5818 0.290598 100.692C0.11937 100.865 0.11937 101.107 0.256353 101.279L18.7832 96.5818H18.9544C18.9544 96.5818 18.8516 96.5818 18.7832 96.5818C22.3789 92.8513 27.9952 87.2903 30.0157 85.5288C31.8648 83.9053 32.6525 83.629 35.8373 83.5945C43.8509 83.5945 69.3294 83.5945 69.3294 83.5945H69.2952Z" fill="#D9D8D6"/>
<path d="M69.2951 96.5473L62.0694 101.452V108.913C62.0694 108.913 62.1378 109.224 62.2748 109.327L69.2951 104.492V96.5473Z" fill="#B1B1B1"/>
<path d="M117.855 109.327C117.855 109.327 118.061 109.085 118.061 108.913V101.452L110.869 96.5473V104.526L117.889 109.362L117.855 109.327Z" fill="#B1B1B1"/>
<path d="M117.479 70.6417H62.6858C62.6858 70.6417 62.4119 70.7108 62.3091 70.7799L69.3294 75.6156H110.869L117.855 70.7799C117.855 70.7799 117.615 70.6417 117.479 70.6417Z" fill="#D9D8D6"/>
<path d="M110.835 96.5473L118.027 101.452H148.608C156.929 101.487 157.34 100.968 162.717 96.3399C164.977 94.4057 175.97 83.5599 179.84 79.4496C180.011 79.2769 180.011 79.0351 179.908 78.8624L161.381 83.5599C157.785 87.2903 152.169 92.8513 150.149 94.6129C148.3 96.2364 147.512 96.5126 144.327 96.5473C136.313 96.5473 110.835 96.5473 110.835 96.5473Z" fill="#76777A"/>
<path d="M110.835 83.5599L118.061 78.6552V71.2289C118.061 71.2289 117.992 70.918 117.855 70.8144L110.835 75.6501V83.5945V83.5599Z" fill="#B1B1B1"/>
<path d="M179.531 78.6897H118.061L110.835 83.5945H161.381L179.908 78.8969C179.839 78.7933 179.737 78.7242 179.497 78.7242L179.531 78.6897Z" fill="#D9D8D6"/>
</g>
<defs>
<linearGradient id="paint0_linear_89_143" x1="102.732" y1="63.1516" x2="98.3369" y2="107.708" gradientUnits="userSpaceOnUse">
<stop offset="0.34" stop-color="#F4D78F"/>
<stop offset="1" stop-color="#E1B63D"/>
</linearGradient>
<linearGradient id="paint1_linear_89_143" x1="87.9121" y1="111.209" x2="88.7006" y2="71.3616" gradientUnits="userSpaceOnUse">
<stop stop-color="#D2A12A"/>
<stop offset="0.88" stop-color="#F1CD6A"/>
<stop offset="1" stop-color="#F1CE6C"/>
</linearGradient>
<linearGradient id="paint2_linear_89_143" x1="102.732" y1="63.1516" x2="98.3369" y2="107.708" gradientUnits="userSpaceOnUse">
<stop offset="0.34" stop-color="#F4D78F"/>
<stop offset="1" stop-color="#E1B63D"/>
</linearGradient>
<linearGradient id="paint3_linear_89_143" x1="87.9121" y1="111.209" x2="88.7006" y2="71.3616" gradientUnits="userSpaceOnUse">
<stop stop-color="#D2A12A"/>
<stop offset="0.88" stop-color="#F1CD6A"/>
<stop offset="1" stop-color="#F1CE6C"/>
</linearGradient>
<clipPath id="clip0_89_143">
<rect width="180" height="39" fill="white" transform="translate(0 70.5)"/>
</clipPath>
</defs>
</svg>
