<svg xmlns="http://www.w3.org/2000/svg" viewBox="0 0 16 16" height="256" width="256">
  <rect fill="#273552" height="256" width="256"></rect>
  <path fill="white" d="M8.18 6.12C9.2184 6.12 10.0584 7.024 10.0184 8.0712C9.9808 9.0672 9.1312 9.88 8.1344 9.88H6.8192C6.7312 9.88 6.6592 9.808 6.6592 9.72V6.28C6.6592 6.192 6.7312 6.12 6.8192 6.12H8.1792M8.18 4H4.98C4.7152 4 4.5 4.2152 4.5 4.48V11.52C4.5 11.7848 4.7152 12 4.98 12H8.18C10.3888 12 12.18 10.2088 12.18 8C12.18 5.7912 10.3888 4 8.18 4Z"></path>
</svg>
